<?xml version="1.0" encoding="iso-8859-1"?>
<!-- Generator: Adobe Illustrator 19.0.0, SVG Export Plug-In . SVG Version: 6.00 Build 0)  -->
<svg version="1.1" id="Capa_1" xmlns="http://www.w3.org/2000/svg" xmlns:xlink="http://www.w3.org/1999/xlink" x="0px" y="0px"
	 viewBox="0 0 381.2 381.2" style="enable-background:new 0 0 381.2 381.2;" xml:space="preserve">
<g>
	<g>
		<path d="M324.56,75.313c-34.36-25.32-81.76-41-133.96-41c-52.2,0-99.6,15.68-133.96,41c-35,25.8-56.64,61.6-56.64,101.28
			c0.06,17.945,4.466,35.609,12.84,51.48c8.169,15.405,19.128,29.158,32.32,40.56h0l-32.88,68.28
			c-1.686,3.43-0.273,7.577,3.156,9.263c2.15,1.057,4.693,0.927,6.724-0.343l73.96-45.6c14.084,5.969,28.73,10.511,43.72,13.56
			c16.705,3.401,33.712,5.103,50.76,5.08c52.2,0,99.6-15.68,133.96-41c35-25.8,56.64-61.6,56.64-101.28
			S359.56,101.113,324.56,75.313z M316.36,266.593c-32,23.64-76.56,38.28-125.76,38.28c-16.121,0.023-32.203-1.585-48-4.8
			c-15.129-3.066-29.881-7.76-44-14c-2.174-0.976-4.698-0.765-6.68,0.56l-56.84,34.96L60,269.833c1.422-2.994,0.535-6.576-2.12-8.56
			c-13.464-10.855-24.605-24.309-32.76-39.56c-7.334-13.912-11.191-29.393-11.24-45.12c0-35.04,19.48-66.92,50.96-90
			c32-23.64,76.56-38.28,125.76-38.28s93.68,14.56,125.76,38.28c31.48,23.2,50.92,55.04,50.92,90.08
			C367.28,211.713,347.84,243.513,316.36,266.593z"/>
	</g>
</g>
<g>
	<g>
		<path d="M272.4,117.353l-3.04-3.04l-0.36-0.36c-18.9-18.821-49.46-18.821-68.36,0l-10.04,10.04l-10.04-10.04
			c-18.9-18.821-49.46-18.821-68.36,0l-3.04,3.04l-0.36,0.36c-18.683,18.759-18.844,49.044-0.36,68l0.32,0.36l14.96,14.96
			l61.96,61.92c2.718,2.716,7.122,2.716,9.84,0l61.92-61.92l14.96-14.96C291.221,166.813,291.221,136.254,272.4,117.353z
			 M262.68,175.833l-14.96,14.96l-57.12,57.04l-57-57l-15-14.96l-0.32-0.32c-13.047-13.531-12.905-35.003,0.32-48.36l0.36-0.36
			l3.04-3.04c13.474-13.367,35.206-13.367,48.68,0l15,14.8c2.718,2.716,7.122,2.716,9.84,0l15.08-14.84
			c13.474-13.367,35.206-13.367,48.68,0l0.36,0.36l3.04,3.04C276.047,140.627,276.047,162.359,262.68,175.833z"/>
	</g>
</g>
<g>
</g>
<g>
</g>
<g>
</g>
<g>
</g>
<g>
</g>
<g>
</g>
<g>
</g>
<g>
</g>
<g>
</g>
<g>
</g>
<g>
</g>
<g>
</g>
<g>
</g>
<g>
</g>
<g>
</g>
</svg>
